HIERARCHY
ROOT SimulationBone
{
	OFFSET 0.000000 0.000000 0.000000
	CHANNELS 6 Xposition Yposition Zposition Zrotation Yrotation Xrotation 
	JOINT Hips
	{
		OFFSET 0.000000 0.000000 0.000000
		CHANNELS 6 Xposition Yposition Zposition Zrotation Yrotation Xrotation 
		JOINT LeftUpLeg
		{
			OFFSET 0.103454 1.857841 10.548502
			CHANNELS 3 Zrotation Yrotation Xrotation
			JOINT LeftLeg
			{
				OFFSET 43.500000 -0.000034 -0.000004
				CHANNELS 3 Zrotation Yrotation Xrotation
				JOINT LeftFoot
				{
					OFFSET 42.372192 0.000027 -0.000002
					CHANNELS 3 Zrotation Yrotation Xrotation
					JOINT LeftToe
					{
						OFFSET 17.300003 0.000001 0.000001
						CHANNELS 3 Zrotation Yrotation Xrotation
						End Site
						{
							OFFSET 0.000000 0.000000 0.000000
						}
					}
				}
			}
		}
		JOINT RightUpLeg
		{
			OFFSET 0.103461 1.857837 -10.548502
			CHANNELS 3 Zrotation Yrotation Xrotation
			JOINT RightLeg
			{
				OFFSET 43.500046 -0.000034 0.000013
				CHANNELS 3 Zrotation Yrotation Xrotation
				JOINT RightFoot
				{
					OFFSET 42.372261 0.000004 0.000013
					CHANNELS 3 Zrotation Yrotation Xrotation
					JOINT RightToe
					{
						OFFSET 17.299986 -0.000008 0.000013
						CHANNELS 3 Zrotation Yrotation Xrotation
						End Site
						{
							OFFSET 0.000000 0.000000 0.000000
						}
					}
				}
			}
		}
		JOINT Spine
		{
			OFFSET 6.901964 -2.603740 0.000003
			CHANNELS 3 Zrotation Yrotation Xrotation
			JOINT Spine1
			{
				OFFSET 12.588108 0.000020 -0.000003
				CHANNELS 3 Zrotation Yrotation Xrotation
				JOINT Spine2
				{
					OFFSET 12.343194 -0.000020 0.000000
					CHANNELS 3 Zrotation Yrotation Xrotation
					JOINT Neck
					{
						OFFSET 25.832893 -0.000004 0.000001
						CHANNELS 3 Zrotation Yrotation Xrotation
						JOINT Head
						{
							OFFSET 11.766617 0.000023 0.000000
							CHANNELS 3 Zrotation Yrotation Xrotation
							End Site
							{
								OFFSET 0.000000 0.000000 0.000000
							}
						}
					}
					JOINT LeftShoulder
					{
						OFFSET 19.745911 -1.480362 6.000106
						CHANNELS 3 Zrotation Yrotation Xrotation
						JOINT LeftArm
						{
							OFFSET 11.284124 -0.000010 -0.000029
							CHANNELS 3 Zrotation Yrotation Xrotation
							JOINT LeftForeArm
							{
								OFFSET 33.000050 0.000006 0.000043
								CHANNELS 3 Zrotation Yrotation Xrotation
								JOINT LeftHand
								{
									OFFSET 25.200006 0.000015 0.000002
									CHANNELS 3 Zrotation Yrotation Xrotation
									End Site
									{
										OFFSET 0.000000 0.000000 0.000000
									}
								}
							}
						}
					}
					JOINT RightShoulder
					{
						OFFSET 19.746103 -1.480366 -6.000076
						CHANNELS 3 Zrotation Yrotation Xrotation
						JOINT RightArm
						{
							OFFSET 11.284135 -0.000031 -0.000006
							CHANNELS 3 Zrotation Yrotation Xrotation
							JOINT RightForeArm
							{
								OFFSET 33.000095 0.000024 0.000006
								CHANNELS 3 Zrotation Yrotation Xrotation
								JOINT RightHand
								{
									OFFSET 25.199774 0.000153 0.000421
									CHANNELS 3 Zrotation Yrotation Xrotation
									End Site
									{
										OFFSET 0.000000 0.000000 0.000000
									}
								}
							}
						}
					}
				}
			}
		}
	}
}
MOTION
Frames: 7
Frame Time: 0.033333
-281.394882 0.000000 121.380025 0.000000 -18.939261 0.000000 -2.391304 86.126678 -0.572586 88.390798 -0.878729 170.145578 153.366912 4.382907 163.392905 -36.238880 -1.923423 -15.020390 86.245577 10.940730 3.072614 21.454558 0.003107 0.000017 -174.309365 -0.131102 -148.256209 -32.422792 -0.315832 17.161287 78.895126 -6.362603 23.695953 21.454553 -0.003093 0.000001 7.489072 -0.256003 1.281109 4.959046 -0.566202 2.550167 4.641279 -0.550938 2.553536 6.351867 3.939224 13.544480 -10.528565 -10.968408 17.703072 -162.875915 -70.207173 -19.010993 7.156825 57.629878 42.089357 -34.959931 -16.844703 1.480320 5.540781 -8.057250 8.896497 171.155033 77.739567 -7.485995 -35.769325 -49.485861 -3.999413 -70.219611 14.739786 -2.482603 -2.572913 3.745338 -35.368243 
-279.537056 0.000000 122.408072 0.000000 -18.025196 0.000000 -2.468401 85.155403 -0.609894 88.990176 -1.597103 172.251800 153.219462 5.421399 165.565042 -40.034437 -3.249347 -14.970979 87.710776 11.084641 4.581264 21.454560 0.003108 0.000017 -177.764074 3.948806 -148.650543 -45.047994 -0.508552 16.817521 73.456683 -4.201409 26.524283 21.454546 -0.003102 0.000001 7.730161 -0.665088 0.758497 5.439001 -1.364815 1.485182 5.120925 -1.355958 1.493391 6.642277 4.255619 12.402130 -11.105996 -9.936190 16.321522 -164.391151 -70.302625 -17.447711 4.825121 57.135478 40.956970 -33.824647 -17.035726 1.466716 6.388503 -7.956802 6.208997 173.759507 77.426198 -4.842429 -33.718629 -51.200314 -2.739875 -74.044448 13.232051 -2.537051 -3.427303 5.156015 -34.641832 
-277.484337 0.000000 123.397631 0.000000 -17.118813 0.000000 -2.279264 84.818909 -0.391151 89.844831 -1.637828 174.057860 155.211322 5.156097 164.134555 -41.906755 -3.111950 -12.591461 89.959971 9.420433 5.260436 21.454557 0.003111 0.000017 177.662045 6.963199 -152.345170 -58.352048 -0.212438 16.591928 67.038484 -5.800410 17.525886 21.454551 -0.003100 0.000002 8.016518 -0.941656 0.352738 6.015550 -1.900225 0.656358 5.697283 -1.896363 0.667821 8.182748 4.106939 11.310132 -12.689281 -8.509314 14.878519 -167.021908 -70.395843 -14.734590 1.485238 56.381709 37.450812 -33.234891 -16.543068 1.421953 7.231987 -7.138018 5.017515 175.557923 77.204961 -3.015289 -30.774944 -53.512128 -2.668704 -76.342343 12.157029 -2.559440 -3.606806 5.853961 -35.033656 
-275.245490 0.000000 124.350025 0.000000 -16.225451 0.000000 -2.234758 84.629402 -0.183709 90.436950 -1.825414 175.546115 157.350565 4.885803 162.763995 -43.002454 -2.948859 -10.330811 91.890162 7.818051 5.713618 21.454557 0.003109 0.000017 172.166734 9.335495 -157.311961 -70.136931 -0.140235 12.884304 66.453957 -5.588566 10.267875 21.454555 -0.003091 0.000000 8.229226 -1.190781 0.023792 6.447171 -2.380965 -0.018566 6.128786 -2.381170 -0.004180 9.432682 4.103802 10.137141 -13.825290 -7.267875 13.342910 -169.085513 -70.770950 -12.606904 -2.453817 56.164523 33.719018 -33.009741 -16.685993 1.426207 7.609889 -5.919132 5.407192 176.807315 76.546039 -1.756279 -26.705365 -55.395232 -4.848706 -76.481057 12.068581 -2.559175 -3.770964 6.715069 -35.707884 
-272.829278 0.000000 125.266574 0.000000 -15.349899 0.000000 -2.143228 84.884300 0.053055 91.060099 -1.588989 177.268136 160.208111 4.921604 164.595442 -42.556740 -3.526095 -9.486232 92.974454 7.167768 5.611577 21.454563 0.003105 0.000017 167.320196 10.308903 -162.016390 -78.059090 -0.362953 9.593461 70.418813 -4.179883 8.128320 21.454557 -0.003088 0.000001 8.445320 -1.247217 -0.340723 6.887555 -2.471936 -0.755039 6.569165 -2.476585 -0.740093 9.907769 4.008964 9.180139 -13.669097 -6.025069 11.908660 -170.046575 -70.961936 -11.616788 -7.054849 55.846178 30.156945 -33.207075 -16.912137 1.445059 8.243824 -5.929084 5.347232 -179.246567 76.300439 2.267509 -24.104311 -57.539610 -7.920590 -73.610738 13.444322 -2.533604 -3.444746 8.030343 -37.738042 
-270.244466 0.000000 126.148602 0.000000 -14.496275 0.000000 -2.038677 85.507347 0.149682 91.634162 -1.890286 178.869375 163.878464 6.268707 168.178997 -39.950135 -4.004975 -9.842722 92.975274 7.328904 4.974671 21.454558 0.003107 0.000017 162.238166 10.592499 -167.554021 -82.427133 -0.574606 7.869873 72.179076 -3.863506 5.492585 21.454570 -0.003088 -0.000001 8.605533 -1.292148 -0.676783 7.215852 -2.539604 -1.432986 6.897534 -2.548348 -1.417623 10.939157 2.916117 8.528727 -14.288388 -4.258901 10.575930 -171.814515 -70.376364 -9.793219 -10.182198 54.886096 27.008221 -34.754215 -17.126139 1.493700 6.639612 -5.822782 7.305168 -176.853583 76.011536 4.707873 -20.569846 -59.407899 -12.042394 -68.359006 15.317048 -2.446524 -2.868170 9.419537 -38.844700 
-267.499818 0.000000 126.997428 0.000000 -13.667926 0.000000 -1.912731 86.351624 0.316609 91.621142 -1.634222 -179.454990 167.579005 6.955901 170.735550 -36.476079 -3.401854 -9.619816 92.558243 7.095329 4.262645 21.454560 0.003108 0.000017 157.651353 9.490295 -172.537368 -82.426538 -0.254137 8.394092 72.823661 -5.039238 3.033236 21.454557 -0.003087 -0.000003 8.609700 -1.145633 -0.968431 7.227471 -2.228630 -2.006721 6.909320 -2.240841 -1.993234 11.387217 2.230952 7.636265 -14.452820 -3.529273 9.351015 -172.285402 -70.408315 -9.307711 -12.390823 55.005853 24.740721 -37.535595 -17.680669 1.596521 5.354964 -5.885457 11.450332 -174.431598 75.989727 7.182693 -16.631907 -61.019974 -16.863394 -61.244093 16.869645 -2.273020 -1.557314 10.332459 -37.702760 
